PathFileType	4	(X/Y/Z)	 1.8Hz3min.trc
DataRate	CameraRate	NumFrames	NumMarkers	Units	OrigDataRate	OrigDataStartFrame	OrigNumFrames
200	200	9	39	m	200	626	1000
Frame#	Time	C7			LSH			RSH			MAN			RASI			LASI			HIPR			HIPL			RPSI			LPSI			COX			RTHI1			RTHI2			RTHI3			RTHI4			RLKN			RMKN			RSHA1			RSHA2			RSHA3			RSHA4			RHEEL			RMET5			RMET1			RTOE			LTHI1			LTHI2			LTHI3			LTHI4			LLKN			LMKN			LSHA1			LSHA2			LSHA3			LSHA4			LHEEL			LMET5			LMET1			LTOE			
		X1	Y1	Z1	X2	Y2	Z2	X3	Y3	Z3	X4	Y4	Z4	X5	Y5	Z5	X6	Y6	Z6	X7	Y7	Z7	X8	Y8	Z8	X9	Y9	Z9	X10	Y10	Z10	X11	Y11	Z11	X12	Y12	Z12	X13	Y13	Z13	X14	Y14	Z14	X15	Y15	Z15	X16	Y16	Z16	X17	Y17	Z17	X18	Y18	Z18	X19	Y19	Z19	X20	Y20	Z20	X21	Y21	Z21	X22	Y22	Z22	X23	Y23	Z23	X24	Y24	Z24	X25	Y25	Z25	X26	Y26	Z26	X27	Y27	Z27	X28	Y28	Z28	X29	Y29	Z29	X30	Y30	Z30	X31	Y31	Z31	X32	Y32	Z32	X33	Y33	Z33	X34	Y34	Z34	X35	Y35	Z35	X36	Y36	Z36	X37	Y37	Z37	X38	Y38	Z38	X39	Y39	Z39	
626	3.1300	-0.301409	1.695289	-0.548991	-0.250066	1.679783	-0.779111	-0.238168	1.681378	-0.345596	-0.165193	1.626505	-0.558691	-0.167652	1.160136	-0.435138	-0.175191	1.170471	-0.668747	-0.227173	1.228940	-0.387263	-0.238943	1.244743	-0.706796	-0.346391	1.210532	-0.485321	-0.350012	1.215314	-0.598316	-0.357782	1.211468	-0.542754	-0.247643	0.930491	-0.338978	-0.232441	0.874636	-0.324926	-0.168853	0.889658	-0.326562	-0.177485	0.948704	-0.341758	-0.191081	0.587582	-0.331127	-0.162577	0.573338	-0.433468	-0.276883	0.464332	-0.297645	-0.294548	0.425065	-0.301773	-0.224272	0.445586	-0.308340	-0.236906	0.407353	-0.309145	-0.386514	0.136149	-0.373569	-0.235086	0.052664	-0.288626	-0.186715	0.068024	-0.364599	-0.156430	0.063455	-0.353886	-0.256576	0.916169	-0.760925	-0.237606	0.859613	-0.774462	-0.174789	0.875841	-0.779095	-0.185679	0.933746	-0.767415	-0.191449	0.591942	-0.761820	-0.157248	0.580368	-0.668717	-0.315282	0.441784	-0.782289	-0.326737	0.403241	-0.777545	-0.266562	0.390377	-0.790874	-0.262993	0.434312	-0.794061	-0.398156	0.138338	-0.731337	-0.245433	0.050275	-0.798184	-0.197760	0.059749	-0.726091	-0.162591	0.054002	-0.739199	
627	3.1350	-0.300883	1.694372	-0.549059	-0.249801	1.678786	-0.779139	-0.237655	1.680476	-0.345716	-0.164629	1.625717	-0.558736	-0.167567	1.159417	-0.435439	-0.175352	1.169761	-0.668765	-0.226844	1.228213	-0.387473	-0.238702	1.243996	-0.706814	-0.346351	1.209914	-0.485422	-0.350045	1.214694	-0.598449	-0.357830	1.210835	-0.542858	-0.247333	0.929931	-0.339196	-0.232193	0.874077	-0.325110	-0.168545	0.889042	-0.326955	-0.177141	0.948080	-0.342124	-0.190961	0.586903	-0.331363	-0.162570	0.572736	-0.433806	-0.275814	0.463073	-0.297523	-0.293212	0.423674	-0.301596	-0.223116	0.444708	-0.308434	-0.235481	0.406385	-0.309221	-0.383580	0.134319	-0.373636	-0.231705	0.051532	-0.288848	-0.183198	0.067541	-0.364537	-0.152948	0.063061	-0.353841	-0.256610	0.915345	-0.760979	-0.237611	0.858775	-0.774380	-0.174805	0.875011	-0.779038	-0.185711	0.932941	-0.767486	-0.191365	0.591143	-0.761698	-0.157277	0.579525	-0.668508	-0.314687	0.440576	-0.782420	-0.326044	0.401981	-0.777663	-0.265782	0.389296	-0.790771	-0.262339	0.433243	-0.794005	-0.396501	0.136479	-0.731048	-0.243249	0.049846	-0.798242	-0.195033	0.060115	-0.726730	-0.159928	0.054499	-0.739982	
628	3.1400	-0.300351	1.693201	-0.549114	-0.249527	1.677509	-0.779199	-0.237129	1.679292	-0.345786	-0.164067	1.624692	-0.558778	-0.167505	1.158486	-0.435761	-0.175541	1.168810	-0.668850	-0.226578	1.227257	-0.387685	-0.238573	1.243005	-0.706872	-0.346341	1.209022	-0.485538	-0.350093	1.213799	-0.598560	-0.357914	1.209909	-0.542965	-0.247025	0.929153	-0.339417	-0.231943	0.873301	-0.325263	-0.168232	0.888191	-0.327337	-0.176796	0.947235	-0.342498	-0.190864	0.585980	-0.331596	-0.162527	0.571896	-0.434133	-0.274725	0.461580	-0.297380	-0.291857	0.422037	-0.301408	-0.221946	0.443598	-0.308509	-0.234047	0.405172	-0.309329	-0.380658	0.132452	-0.373683	-0.228462	0.049859	-0.289299	-0.179848	0.066672	-0.364713	-0.149665	0.062203	-0.354067	-0.256622	0.914276	-0.761064	-0.237581	0.857694	-0.774317	-0.174785	0.873936	-0.778965	-0.185715	0.931902	-0.767556	-0.191280	0.590119	-0.761606	-0.157305	0.578468	-0.668294	-0.314087	0.439092	-0.782511	-0.325326	0.400462	-0.777750	-0.264973	0.387974	-0.790655	-0.261678	0.431935	-0.793941	-0.394825	0.134500	-0.730673	-0.241265	0.049002	-0.798266	-0.192430	0.060051	-0.727389	-0.157444	0.054510	-0.740817	
629	3.1450	-0.299807	1.691787	-0.549158	-0.249240	1.675964	-0.779292	-0.236581	1.677826	-0.345808	-0.163499	1.623425	-0.558815	-0.167468	1.157347	-0.436094	-0.175748	1.167616	-0.668996	-0.226372	1.226081	-0.387900	-0.238553	1.241770	-0.706963	-0.346359	1.207859	-0.485668	-0.350154	1.212634	-0.598647	-0.358029	1.208692	-0.543065	-0.246716	0.928144	-0.339633	-0.231681	0.872306	-0.325382	-0.167915	0.887119	-0.327714	-0.176447	0.946154	-0.342880	-0.190722	0.584823	-0.331779	-0.162430	0.570808	-0.434438	-0.273605	0.459850	-0.297228	-0.290477	0.420175	-0.301224	-0.220746	0.442241	-0.308567	-0.232603	0.403716	-0.309462	-0.377817	0.130548	-0.373650	-0.225341	0.047694	-0.289990	-0.176697	0.065438	-0.365167	-0.146583	0.060897	-0.354623	-0.256610	0.912966	-0.761176	-0.237522	0.856371	-0.774279	-0.174729	0.872628	-0.778881	-0.185695	0.930624	-0.767621	-0.191177	0.588873	-0.761552	-0.157315	0.577194	-0.668084	-0.313479	0.437354	-0.782563	-0.324591	0.398692	-0.777803	-0.264161	0.386407	-0.790549	-0.261020	0.430384	-0.793871	-0.393160	0.132406	-0.730245	-0.239437	0.047777	-0.798243	-0.189985	0.059548	-0.727995	-0.155138	0.054029	-0.741620	
630	3.1500	-0.299248	1.690142	-0.549192	-0.248932	1.674158	-0.779416	-0.236007	1.676081	-0.345784	-0.162923	1.621915	-0.558855	-0.167461	1.155990	-0.436425	-0.175970	1.166181	-0.669194	-0.226227	1.224685	-0.388116	-0.238634	1.240293	-0.707079	-0.346406	1.206423	-0.485810	-0.350229	1.211189	-0.598712	-0.358175	1.207195	-0.543160	-0.246378	0.926922	-0.339760	-0.231402	0.871084	-0.325471	-0.167580	0.885805	-0.328082	-0.176082	0.944855	-0.343265	-0.190492	0.583427	-0.331915	-0.162252	0.569480	-0.434717	-0.272439	0.457911	-0.297089	-0.289066	0.418120	-0.301057	-0.219500	0.440649	-0.308603	-0.231140	0.402033	-0.309596	-0.375119	0.128620	-0.373488	-0.222337	0.045107	-0.290935	-0.173757	0.063840	-0.365926	-0.143715	0.059178	-0.355535	-0.256580	0.911419	-0.761309	-0.237441	0.854807	-0.774269	-0.174646	0.871076	-0.778787	-0.185654	0.929104	-0.767680	-0.191037	0.587395	-0.761535	-0.157288	0.575704	-0.667890	-0.312871	0.435373	-0.782565	-0.323845	0.396692	-0.777794	-0.263358	0.384611	-0.790459	-0.260375	0.428597	-0.793805	-0.391537	0.130200	-0.729800	-0.237743	0.046191	-0.798149	-0.187728	0.058604	-0.728482	-0.152990	0.053061	-0.742311	
631	3.1550	-0.298675	1.688267	-0.549209	-0.248602	1.672094	-0.779565	-0.235395	1.674057	-0.345723	-0.162337	1.620156	-0.558897	-0.167486	1.154409	-0.436744	-0.176203	1.164496	-0.669437	-0.226147	1.223066	-0.388330	-0.238811	1.238571	-0.707212	-0.346479	1.204723	-0.485962	-0.350321	1.209466	-0.598754	-0.358348	1.205417	-0.543251	-0.246030	0.925462	-0.339874	-0.231084	0.869627	-0.325533	-0.167220	0.884254	-0.328441	-0.175700	0.943310	-0.343643	-0.190151	0.581802	-0.332007	-0.161978	0.567900	-0.434968	-0.271219	0.455781	-0.296975	-0.287623	0.415892	-0.300923	-0.218202	0.438843	-0.308625	-0.229651	0.400140	-0.309714	-0.372600	0.126661	-0.373206	-0.219476	0.042304	-0.292009	-0.171043	0.061874	-0.367017	-0.141053	0.057075	-0.356829	-0.256527	0.909634	-0.761466	-0.237337	0.853009	-0.774295	-0.174537	0.869295	-0.778695	-0.185592	0.927347	-0.767733	-0.190850	0.585671	-0.761555	-0.157200	0.573995	-0.667720	-0.312263	0.433173	-0.782491	-0.323093	0.394471	-0.777713	-0.262571	0.382591	-0.790384	-0.259746	0.426585	-0.793739	-0.389984	0.127896	-0.729368	-0.236175	0.044296	-0.797984	-0.185671	0.057236	-0.728790	-0.151010	0.051617	-0.742823	
632	3.1600	-0.298090	1.686164	-0.549209	-0.248245	1.669772	-0.779736	-0.234740	1.671756	-0.345634	-0.161745	1.618144	-0.558943	-0.167544	1.152599	-0.437043	-0.176443	1.162550	-0.669709	-0.226125	1.221218	-0.388539	-0.239063	1.236600	-0.707354	-0.346581	1.202764	-0.486121	-0.350431	1.207468	-0.598781	-0.358543	1.203366	-0.543345	-0.245649	0.923756	-0.339922	-0.230719	0.867919	-0.325569	-0.166825	0.882479	-0.328796	-0.175297	0.941522	-0.344016	-0.189673	0.579951	-0.332069	-0.161599	0.566078	-0.435200	-0.269950	0.453478	-0.296895	-0.286152	0.413501	-0.300836	-0.216857	0.436825	-0.308641	-0.228123	0.398046	-0.309793	-0.370339	0.124636	-0.372794	-0.216737	0.039472	-0.293054	-0.168548	0.059647	-0.368407	-0.138574	0.054663	-0.358480	-0.256452	0.907616	-0.761648	-0.237212	0.850977	-0.774362	-0.174405	0.867281	-0.778609	-0.185509	0.925353	-0.767779	-0.190604	0.583697	-0.761606	-0.157032	0.572060	-0.667580	-0.311661	0.430768	-0.782317	-0.322344	0.392049	-0.777545	-0.261808	0.380363	-0.790315	-0.259136	0.424364	-0.793667	-0.388546	0.125504	-0.728951	-0.234724	0.042214	-0.797790	-0.183789	0.055529	-0.728891	-0.149184	0.049764	-0.743105	
633	3.1650	-0.297490	1.683840	-0.549191	-0.247858	1.667200	-0.779924	-0.234026	1.669185	-0.345524	-0.161153	1.615874	-0.558990	-0.167638	1.150551	-0.437317	-0.176689	1.160349	-0.669995	-0.226138	1.219148	-0.388751	-0.239370	1.234376	-0.707495	-0.346713	1.200546	-0.486284	-0.350566	1.205201	-0.598804	-0.358761	1.201049	-0.543446	-0.245241	0.921804	-0.339906	-0.230295	0.865956	-0.325590	-0.166387	0.880482	-0.329146	-0.174867	0.939494	-0.344384	-0.189033	0.577870	-0.332122	-0.161098	0.564015	-0.435426	-0.268642	0.451010	-0.296852	-0.284668	0.410977	-0.300794	-0.215474	0.434613	-0.308653	-0.226584	0.395768	-0.309847	-0.368424	0.122502	-0.372283	-0.214193	0.036760	-0.293845	-0.166276	0.057254	-0.369930	-0.136245	0.052060	-0.360351	-0.256353	0.905366	-0.761850	-0.237060	0.848715	-0.774465	-0.174242	0.865047	-0.778542	-0.185408	0.923118	-0.767816	-0.190280	0.581476	-0.761688	-0.156762	0.569883	-0.667465	-0.311057	0.428196	-0.782038	-0.321603	0.389450	-0.777270	-0.261087	0.377935	-0.790252	-0.258552	0.421946	-0.793580	-0.387297	0.122995	-0.728539	-0.233365	0.040070	-0.797649	-0.182069	0.053620	-0.728819	-0.147471	0.047621	-0.743132	
634	3.1700	-0.296871	1.681300	-0.549157	-0.247441	1.664374	-0.780120	-0.233254	1.666342	-0.345397	-0.160571	1.613342	-0.559039	-0.167771	1.148255	-0.437562	-0.176950	1.157892	-0.670282	-0.226191	1.216847	-0.388960	-0.239720	1.231894	-0.707635	-0.346883	1.198071	-0.486445	-0.350733	1.202668	-0.598831	-0.359009	1.198477	-0.543562	-0.244815	0.919585	-0.339862	-0.229803	0.863732	-0.325601	-0.165897	0.878263	-0.329489	-0.174407	0.937234	-0.344747	-0.188200	0.575555	-0.332172	-0.160466	0.561717	-0.435664	-0.267305	0.448412	-0.296837	-0.283199	0.408333	-0.300784	-0.214079	0.432223	-0.308674	-0.225068	0.393321	-0.309894	-0.366903	0.120243	-0.371810	-0.211980	0.034306	-0.294175	-0.164217	0.054836	-0.371352	-0.134078	0.049374	-0.362180	-0.256229	0.902879	-0.762070	-0.236874	0.846222	-0.774603	-0.174050	0.862584	-0.778497	-0.185283	0.920653	-0.767842	-0.189866	0.578998	-0.761790	-0.156366	0.567455	-0.667372	-0.310465	0.425468	-0.781667	-0.320892	0.386699	-0.776902	-0.260414	0.375324	-0.790171	-0.257997	0.419354	-0.793472	-0.386321	0.120362	-0.728085	-0.232130	0.038018	-0.797668	-0.180504	0.051655	-0.728667	-0.145849	0.045335	-0.742949	
